<svg xmlns="http://www.w3.org/2000/svg" viewBox="0 0 360 360">
  <g transform="matrix(1,0,0,-1,-6,240)">
    <g transform="translate(123,130)">
      <path style="fill:#000000;fill-opacity:1;fill-rule:evenodd;stroke:none" d="
             m 0,0 c 0,-4.419 -0.674,-8.238 -2.022,-11.459 -1.348,-3.221 -3.146,-5.879 -5.393,-7.977 -2.247,-2.096 -4.793,-3.651 -7.639,-4.662 -2.846,-1.01 -5.729,-1.516 -8.651,-1.516 h -7.751 V -54.599 H -49.094 V 24.94 h 24.716 c 2.846,0 5.711,-0.412 8.594,-1.235 2.883,-0.825 5.505,-2.191 7.864,-4.101 2.359,-1.91 4.269,-4.475 5.73,-7.696 C -0.73,8.688 0,4.718 0,0 
             m -16.852,-0.337 c 0,3.595 -0.861,6.179 -2.584,7.752 -1.722,1.572 -3.819,2.359 -6.291,2.359 h -5.729 V -11.01 h 5.729 c 2.472,0 4.569,0.918 6.291,2.753 1.723,1.835 2.584,4.475 2.584,7.92 
             M 9.549,24.94 H 27.636 V -54.599 H 9.549 Z 
             m 66.17,-79.539 -11.01,26.288 -10.896,-26.288 H 35.051 L 54.599,-12.919 36.624,24.94 H 55.385 L 65.159,0.787 75.045,24.94 H 93.47 L 75.382,-12.807 95.155,-54.599 Z 
             m 26.738,79.539 h 18.087 v -79.539 h -18.087 z 
             m 67.069,-79.539 H 146.72 L 127.51,24.94 h 20.334 l 10.784,-58.194 h 0.226 l 10.672,58.194 h 19.548 z" />
    </g>
    <g transform="translate(0,0)">
      <path style="fill:#000000;fill-opacity:1;fill-rule:evenodd;stroke:none"
        d="
             M 34.573,8.65 V -7.527 h 18.986 v -15.391 h -18.874 v -31.681 h -18.2 V 24.94 h 38.759 V 8.65 Z 
             m 61.676,-63.249 -3.258,14.493 H 75.129 L 71.87,-54.599 H 53.896 L 73.219,24.94 H 95.8 l 19.211,-79.539 z 
             M 84.341,7.639 h -0.449 l -6.742,-33.815 h 13.594 z 
             m 71.231,-62.238 -18.424,48.42 h -0.336 l 0.449,-48.42 H 121.195 V 24.94 h 19.773 l 18.311,-49.093 h 0.338 l -0.338,49.093 h 15.504 v -79.539 z 
             m 81.019,22.694 c 0,-4.27 -0.694,-7.846 -2.078,-10.729 -1.386,-2.884 -3.202,-5.206 -5.45,-6.966 -2.247,-1.759 -4.774,-3.033 -7.583,-3.819 -2.808,-0.786 -5.635,-1.18 -8.482,-1.18 h -26.4 V 24.94 h 23.817 c 2.471,0 5.093,-0.262 7.863,-0.786 2.772,-0.525 5.299,-1.517 7.583,-2.977 2.285,-1.461 4.195,-3.539 5.73,-6.235 1.536,-2.696 2.304,-6.179 2.304,-10.448 0,-4.719 -0.956,-8.482 -2.866,-11.291 -1.909,-2.808 -4.25,-4.849 -7.021,-6.122 v -0.226 c 1.498,-0.374 2.996,-1.047 4.494,-2.021 1.498,-0.974 2.846,-2.229 4.044,-3.764 1.198,-1.535 2.172,-3.388 2.921,-5.561 0.749,-2.172 1.124,-4.643 1.124,-7.414 
             M 218.054,1.573 c 0,3.071 -0.862,5.242 -2.584,6.516 -1.723,1.273 -3.744,1.91 -6.067,1.91 h -6.066 V -7.19 h 6.179 c 2.171,0 4.138,0.674 5.898,2.022 1.76,1.348 2.64,3.595 2.64,6.741 
             m 1.461,-31.794 c 0,1.798 -0.282,3.315 -0.843,4.551 -0.562,1.235 -1.311,2.246 -2.247,3.033 -0.937,0.786 -1.985,1.366 -3.146,1.741 -1.161,0.375 -2.302,0.562 -3.426,0.562 h -6.516 v -19.323 h 6.74 c 2.622,0 4.85,0.786 6.685,2.359 1.835,1.573 2.753,3.932 2.753,7.077 
             m 83.714,15.617 c 0,-6.292 -0.711,-12.04 -2.134,-17.246 -1.424,-5.205 -3.446,-9.642 -6.068,-13.312 -2.621,-3.67 -5.822,-6.516 -9.604,-8.538 -3.782,-2.023 -8.033,-3.033 -12.751,-3.033 -4.719,0 -8.969,1.01 -12.751,3.033 -3.782,2.022 -6.984,4.868 -9.606,8.538 -2.622,3.67 -4.643,8.107 -6.066,13.312 -1.424,5.206 -2.135,10.954 -2.135,17.246 0,6.291 0.693,12.001 2.078,17.132 1.386,5.13 3.389,9.512 6.011,13.144 2.621,3.632 5.823,6.441 9.606,8.426 3.782,1.985 8.069,2.977 12.863,2.977 4.718,0 8.969,-0.992 12.751,-2.977 3.782,-1.985 6.983,-4.794 9.604,-8.426 2.622,-3.632 4.644,-8.014 6.068,-13.144 1.423,-5.131 2.134,-10.841 2.134,-17.132 
             m -18.424,0 c 0,3.445 -0.263,6.646 -0.786,9.605 -0.525,2.958 -1.292,5.523 -2.304,7.695 -1.011,2.172 -2.266,3.876 -3.764,5.112 -1.497,1.235 -3.258,1.854 -5.279,1.854 -2.023,0 -3.802,-0.619 -5.337,-1.854 -1.535,-1.236 -2.809,-2.94 -3.819,-5.112 -1.011,-2.172 -1.76,-4.737 -2.247,-7.695 -0.487,-2.959 -0.731,-6.16 -0.731,-9.605 0,-3.446 0.244,-6.667 0.731,-9.662 0.487,-2.996 1.236,-5.58 2.247,-7.752 1.01,-2.171 2.284,-3.894 3.819,-5.168 1.535,-1.273 3.314,-1.91 5.337,-1.91 2.021,0 3.782,0.637 5.279,1.91 1.498,1.274 2.753,2.997 3.764,5.168 1.012,2.172 1.779,4.756 2.304,7.752 0.523,2.995 0.786,6.216 0.786,9.662 
             m 58.992,-39.995 -11.01,26.288 -10.896,-26.288 h -18.762 l 19.548,41.68 -17.975,37.859 h 18.761 l 9.774,-24.153 9.886,24.153 h 18.424 l -18.087,-37.747 19.772,-41.792 z" />
    </g>
  </g>
</svg>